<svg xmlns="http://www.w3.org/2000/svg" viewBox="0 0 162.25 74.34"><defs><style>.cls-1{fill:#fcfdfd;}.cls-2{fill:#e61c27;}</style></defs><title>5Asset 1</title><g id="Layer_2" data-name="Layer 2"><g id="Layer_1-2" data-name="Layer 1"><path class="cls-1" d="M116.24,23.69v1.22c0,3.61,0,7.21,0,10.81,0,.47-.07.65-.6.64-1.76,0-3.51,0-5.27,0-.39,0-.58,0-.58-.52q0-11.11,0-22.23c0-.47.14-.6.6-.59,1.65,0,3.29,0,4.94,0a.93.93,0,0,1,.83.42q4.38,5.66,8.79,11.31l.26.32c.23-.18.11-.42.11-.62,0-3.56,0-7.12,0-10.68,0-.57.14-.77.74-.75,1.69,0,3.38,0,5.07,0,.47,0,.66.09.66.62q0,11.07,0,22.15c0,.49-.17.58-.61.57-1.51,0-3,0-4.54,0a1,1,0,0,1-.88-.44q-4.5-5.82-9-11.62C116.61,24.13,116.48,24,116.24,23.69Z"/><path class="cls-1" d="M54.18,24.65c0-3.67,0-7.34,0-11,0-.49.1-.63.61-.63q8.74,0,17.48,0c.55,0,.68.17.67.68,0,1.45,0,2.89,0,4.34,0,.48-.15.58-.6.57-3.69,0-7.39,0-11.08,0-.52,0-.69.12-.66.66a15.14,15.14,0,0,1,0,2.13c0,.51.11.68.66.68,3.27,0,6.54,0,9.81,0,.59,0,.75.15.73.74-.05,1.24,0,2.49,0,3.74,0,.51-.13.67-.66.67-3.27,0-6.54,0-9.81,0-.59,0-.77.14-.73.73a14.69,14.69,0,0,1,0,2.2c0,.55.12.71.69.71,3.69,0,7.38,0,11.07,0,.58,0,.78.13.76.74,0,1.44,0,2.89,0,4.34,0,.4-.1.52-.52.52q-9,0-18,0c-.48,0-.47-.23-.47-.56C54.18,32.08,54.18,28.37,54.18,24.65Z"/><path class="cls-1" d="M30.37,53.16c.83-2.77,1.63-5.41,2.44-8.06.26-.87.54-1.74.77-2.61.08-.29.18-.41.48-.41h5.27L37.72,47Q35.4,54,33.1,61c-.18.53-.39.75-1,.72-1.11,0-2.22,0-3.34,0a.78.78,0,0,1-.9-.63c-1.14-3.33-2.31-6.65-3.47-10l-.18-.44c-.6,1.71-1.15,3.3-1.71,4.88-.65,1.88-1.32,3.76-2,5.65a.61.61,0,0,1-.7.5c-1.23,0-2.45,0-3.67,0-.35,0-.56-.06-.69-.45-2.08-6.33-4.19-12.65-6.28-19a1,1,0,0,1,0-.16c1.78,0,3.56,0,5.34,0,.38,0,.41.24.48.49L18,52.3c.06.23.14.45.28.87L19,51.1c.92-2.78,1.85-5.55,2.75-8.34.16-.52.37-.75.95-.72a27.24,27.24,0,0,0,3.13,0,1,1,0,0,1,1.12.78c1.05,3.29,2.16,6.57,3.24,9.85Z"/><path class="cls-1" d="M53.28,36.35c-2.19,0-4.27-.07-6.35,0a2.24,2.24,0,0,1-2.29-1.2c-1.49-2.36-3.13-4.63-4.68-7-.3-.46-.44-.39-.74,0-.6.71-1.47,1.3-1.8,2.12a7.79,7.79,0,0,0-.09,2.7c0,1,0,1.92,0,2.87,0,.38-.1.5-.48.49q-2.81,0-5.61,0c-.36,0-.43-.13-.43-.46q0-11.17,0-22.35c0-.41.11-.53.52-.52,1.8,0,3.61,0,5.41,0,.48,0,.6.18.59.63,0,2.62,0,5.24,0,7.87v.85L39.1,20.3q2.9-3.4,5.77-6.83a1.19,1.19,0,0,1,1-.46c2.12,0,4.23,0,6.34,0H53l-2.27,2.6c-2.09,2.37-4.17,4.74-6.28,7.09-.29.33-.16.51,0,.78l8.41,12.24Z"/><path class="cls-1" d="M142,49.54c1.45-2.34,2.88-4.63,4.28-6.95a.93.93,0,0,1,1-.51c1.51,0,3,0,4.54,0,.4,0,.57.05.57.52q0,9.21,0,18.42c0,.4-.1.53-.52.53-1.45,0-2.89,0-4.34,0-.49,0-.58-.19-.58-.63,0-3.18,0-6.36,0-9.55v-.59c-.28,0-.31.22-.4.34-1.4,2.14-2.8,4.26-4.17,6.42-.35.53-.49.42-.78,0-1.35-2.09-2.72-4.16-4.08-6.24-.12-.18-.25-.35-.48-.67V52c0,3,0,6,0,8.94,0,.44-.09.62-.58.61-1.38,0-2.76,0-4.13,0-.52,0-.63-.18-.63-.67q0-9.1,0-18.21c0-.46.11-.61.58-.6,1.45,0,2.9,0,4.34,0a1.24,1.24,0,0,1,1.25.7c1.28,2.14,2.6,4.24,3.9,6.36Z"/><path class="cls-1" d="M86.24,27.63C87.64,23.74,89,20,90.33,16.25c.33-.92.66-1.84,1-2.76A.6.6,0,0,1,92,13c2.18,0,4.36,0,6.64,0l-1.33,3.35c-2.62,6.51-5.26,13-7.86,19.53a.76.76,0,0,1-.86.59c-1.65,0-3.29,0-4.94,0A.59.59,0,0,1,83,36q-4.5-11.19-9-22.36c-.24-.59,0-.65.48-.65q3,0,6,0a.65.65,0,0,1,.75.52Q83.54,20.21,86,26.85C86,27.05,86.1,27.26,86.24,27.63Z"/><path class="cls-1" d="M61.76,52.23c0-3.29,0-6.41,0-9.52,0-.47.07-.65.6-.64,1.42,0,2.85,0,4.27,0,.42,0,.51.13.51.53q0,9.21,0,18.41c0,.48-.18.54-.58.53-1.2,0-2.4,0-3.6,0a1,1,0,0,1-.94-.46C59.65,58,57.27,55,54.9,51.94c-.2-.26-.41-.51-.63-.78-.17.23-.09.45-.09.66,0,3,0,6,0,9.07,0,.54-.15.67-.66.66-1.38,0-2.76,0-4.14,0-.43,0-.63-.07-.62-.57q0-9.18,0-18.35c0-.44.13-.55.56-.54q1.94,0,3.87,0a1.05,1.05,0,0,1,1,.48q3.55,4.61,7.15,9.21Z"/><path class="cls-1" d="M70,51.72c0-3,0-6,0-9,0-.46.07-.65.6-.64,2.94.09,5.88-.18,8.8.16,3.74.43,6.81,2,8.31,5.66,1.94,4.71.44,11.57-7,13.27a15.86,15.86,0,0,1-3.57.37c-2.14,0-4.27,0-6.41,0-.58,0-.79-.12-.78-.76C70.05,57.77,70,54.74,70,51.72Zm5.41.07c0,1.46,0,2.93,0,4.39,0,.34,0,.55.47.53.93-.05,1.87,0,2.79-.09a4.49,4.49,0,0,0,4.18-4.11c.21-2.85-1-4.72-3.49-5.37a14.69,14.69,0,0,0-3.24-.23c-.54,0-.73.11-.71.68C75.47,49,75.44,50.39,75.44,51.79Z"/><path class="cls-1" d="M108.1,51.76c0,3,0,6.05,0,9.08,0,.53-.09.73-.67.71-1.4,0-2.81,0-4.21,0-.52,0-.62-.16-.61-.64,0-2,0-4.09,0-6.14,0-.44-.08-.61-.57-.6q-2.83,0-5.67,0c-.49,0-.59.15-.58.6,0,2.07,0,4.14,0,6.21,0,.43-.11.57-.56.57-1.44,0-2.89,0-4.33,0-.45,0-.57-.16-.57-.58q0-9.18,0-18.35c0-.4.09-.54.51-.53q2.23,0,4.47,0c.4,0,.48.13.48.49,0,2,0,4.09,0,6.14,0,.47.07.65.6.64,1.89,0,3.78,0,5.67,0,.46,0,.55-.14.55-.56,0-2,0-4,0-6.08,0-.55.18-.65.67-.64,1.4,0,2.81,0,4.21,0,.49,0,.63.11.62.62C108.09,45.71,108.1,48.74,108.1,51.76Z"/><path class="cls-1" d="M127.76,61.54c-.78,0-1.56,0-2.33,0a.67.67,0,0,1-.74-.49c-.32-.85-.69-1.68-1-2.53a.62.62,0,0,0-.69-.46q-3.23,0-6.47,0a.6.6,0,0,0-.66.48c-.32.85-.67,1.69-1,2.53-.12.3-.26.47-.62.46-1.58,0-3.16,0-4.74,0-.57,0-.48-.21-.32-.58q2.3-5.41,4.58-10.83c1.09-2.56,2.18-5.13,3.25-7.7a.67.67,0,0,1,.72-.5q2.1,0,4.2,0c.42,0,.57.16.72.51q3.9,9.27,7.84,18.53c.22.52.06.58-.41.56C129.32,61.52,128.54,61.54,127.76,61.54Zm-5.86-7.73-2.09-5.34-2.13,5.34Z"/><path class="cls-2" d="M162.24,37.38V70.61c0,1.08-.26,1.35-1.35,1.35H142.2c-.56,0-.77-.12-.78-.73s.22-.74.78-.74c5.85,0,11.7,0,17.55,0,1,0,1,0,1-1q0-32.33,0-64.66c0-.59-.15-.76-.74-.76q-20,0-40,0c-.59,0-.78-.17-.78-.76s.2-.77.78-.77q20.46,0,40.91,0c1,0,1.3.33,1.3,1.25v33.5Z"/><path class="cls-2" d="M0,37.35V3.79c0-.91.29-1.16,1.35-1.16H39.58c.91,0,1.83,0,2.73,0,.71,0,.64.38.67.85s-.16.67-.69.67q-19.68,0-39.37,0c-1.56,0-1.56,0-1.56,1.53v64c0,.93,0,.93.92.93q8.87,0,17.75,0c.66,0,.85.2.8.83,0,.41-.12.58-.58.58H1.1C.21,72,0,71.73,0,70.78V37.35Z"/><path class="cls-1" d="M106.34,24.67c0,3.66,0,7.33,0,11,0,.57-.16.7-.7.69-1.78,0-3.56,0-5.34,0-.4,0-.52-.1-.52-.52q0-11.15,0-22.28c0-.46.16-.55.58-.55,1.78,0,3.56,0,5.34,0,.49,0,.64.15.64.65C106.33,17.33,106.34,21,106.34,24.67Z"/><path class="cls-1" d="M45.9,51.76c0,3,0,6.05,0,9.07,0,.61-.18.74-.74.72-1.4,0-2.8,0-4.2,0-.45,0-.56-.13-.56-.57q0-9.16,0-18.34c0-.49.16-.57.6-.56,1.42,0,2.85,0,4.27,0,.49,0,.63.11.63.62C45.89,45.71,45.9,48.74,45.9,51.76Z"/><path class="cls-2" d="M103.83,71.94c0-1.14,0-2.28,0-3.42,0-.44.13-.56.56-.56s.53.12.53.53c0,1.69,0,3.38,0,5.06,0,.19.14.52-.19.55s-.63.16-.9-.2c-1-1.33-2-2.64-3.08-4a4.49,4.49,0,0,0-.09,1.45c0,.76,0,1.51,0,2.27,0,.41-.12.52-.53.53s-.57-.11-.56-.56c0-1.62,0-3.24,0-4.86,0-.25-.22-.64.21-.72a1,1,0,0,1,1.07.3c.8,1.08,1.63,2.14,2.45,3.2l.38.48Z"/><path class="cls-2" d="M100.1,6.21C98.76,6.75,98.44,5.68,98,5a1.37,1.37,0,0,0-1.42-.79c-.4,0-.48.17-.46.52s0,.71,0,1.07-.1.57-.55.58S95,6.15,95,5.74c0-1.66,0-3.33,0-5,0-.41.08-.6.54-.58.85,0,1.7,0,2.54,0a2,2,0,0,1,1.65,3,1.68,1.68,0,0,1-.73.64c-.36.19-.33.37-.11.66C99.31,5,99.69,5.62,100.1,6.21Zm-4-4c0,1.28-.06,1,1.06,1.07a3.55,3.55,0,0,0,.79-.09c.71-.13.92-.41.88-1.1s-.43-.85-1-.85h-.73C96.09,1.2,96.09,1.2,96.09,2.18Z"/><path class="cls-2" d="M61.55,74a1.32,1.32,0,0,1-1.75-.63c-.23-.4-.56-.73-.77-1.14A.53.53,0,0,0,58.5,72c-.91,0-.91,0-.91.88,0,.22,0,.45,0,.67.05.48-.16.61-.62.6s-.53-.24-.52-.63c0-1.6,0-3.2,0-4.8,0-.59.18-.78.76-.74.75.06,1.51,0,2.27,0a2,2,0,0,1,1.9,1.37,1.9,1.9,0,0,1-1,2.29c-.38.19-.31.3-.12.55s.42.61.62.91Zm-2.86-5v0c-.25,0-.49,0-.73,0s-.39,0-.4.24c0,.49,0,1,0,1.46a.33.33,0,0,0,.36.32,5.16,5.16,0,0,0,1.84-.14.85.85,0,0,0,.56-1c-.07-.43-.23-.81-.76-.84Z"/><path class="cls-2" d="M80.11,74.06c-.76.11-1.38.2-1.7-.64-.14-.35-.5-.6-.67-1-.34-.66-.92-.47-1.44-.47-.27,0-.23.23-.23.39,0,.45,0,.89,0,1.34s-.31.38-.58.39-.51,0-.51-.4c0-1.77,0-3.55,0-5.32,0-.31.1-.43.42-.43.91,0,1.82,0,2.73,0a1.84,1.84,0,0,1,1.68,1.23c.32,1.21.17,1.69-.73,2.3-.35.24-.54.43-.15.85A15,15,0,0,1,80.11,74.06Zm-2.82-5h-.86c-.42,0-.4.3-.35.55.1.49-.32,1.09.29,1.48h.06A14.23,14.23,0,0,0,78,71c.64-.12.8-.51.78-1.07a.8.8,0,0,0-.91-.87Z"/><path class="cls-2" d="M75.26.18A3.22,3.22,0,0,1,78.54,1.6a3,3,0,0,1,.08,3.19,2.91,2.91,0,0,1-2.54,1.52c-.66,0-1.33,0-2,0-.45,0-.57-.17-.56-.58q0-2.54,0-5.07c0-.39.13-.52.5-.5S74.77.18,75.26.18Zm-.65,3.1h0V4.82c0,.18,0,.42.21.43.74,0,1.53.23,2.19-.27a2.14,2.14,0,0,0,.59-2.87,2.75,2.75,0,0,0-2.77-.88c-.23.11-.21.32-.21.52C74.61,2.26,74.61,2.77,74.61,3.28Z"/><path class="cls-2" d="M50.7,1.75a1.52,1.52,0,0,1-.54,1.15c-.13.14-.36.3,0,.49a1.33,1.33,0,0,1,.69,1.33,1.75,1.75,0,0,1-1.16,1.54,3,3,0,0,1-2.6-.16,1.5,1.5,0,0,1-.42-2.54c.33-.33.39-.51.06-.9a1.42,1.42,0,0,1,.17-2,2.4,2.4,0,0,1,3.63.47A1.57,1.57,0,0,1,50.7,1.75ZM48.45,5.52c.8,0,1.27-.33,1.28-.91s-.42-.94-1.17-1-1.32.4-1.32,1A1.09,1.09,0,0,0,48.45,5.52Zm1.19-3.64A1,1,0,0,0,48.55,1c-.67,0-1,.27-1,.82a1.06,1.06,0,0,0,1.06,1A1.12,1.12,0,0,0,49.64,1.88Z"/><path class="cls-2" d="M95.84,68h1.6c.35,0,.71,0,.67.48s-.29.57-.72.56c-.64,0-1.29,0-1.93,0s-.8.07-.8.71.27.78.83.74,1.07,0,1.6,0,.6.1.62.55-.25.48-.59.48c-.62,0-1.24,0-1.86,0-.45,0-.61.16-.57.58a1.29,1.29,0,0,1,0,.34c-.09.53.1.76.68.73s1.46,0,2.19,0c.41,0,.63.1.64.55s-.26.48-.6.48c-1.16,0-2.31,0-3.47,0-.49,0-.6-.22-.6-.64,0-1.62,0-3.25,0-4.87,0-.47.14-.69.65-.65S95.29,68,95.84,68Z"/><path class="cls-2" d="M81.54,71c0-.83,0-1.65,0-2.47,0-.4.09-.6.55-.59,1.16,0,2.31,0,3.47,0,.28,0,.6,0,.52.39s0,.68-.56.65c-.78,0-1.56,0-2.33,0s-.5.41-.51.77,0,.71.53.68,1.2,0,1.8,0c.39,0,.67,0,.69.55s-.32.47-.64.47c-.62,0-1.25,0-1.87,0-.37,0-.54.11-.51.49a4,4,0,0,1,0,.6c0,.39.13.55.54.54.79,0,1.59,0,2.39,0,.45,0,.57.19.58.61s-.25.43-.55.43c-1.17,0-2.35,0-3.53,0-.43,0-.59-.14-.58-.57,0-.85,0-1.69,0-2.53Z"/><path class="cls-2" d="M133.05,71.05c0-.85,0-1.69,0-2.53,0-.4.13-.56.54-.55,1.16,0,2.32,0,3.47,0a.46.46,0,0,1,.54.5c0,.35-.16.56-.58.55-.77,0-1.55,0-2.33,0-.58,0-.49.38-.49.72s-.08.75.49.73,1.25,0,1.87,0c.43,0,.65.1.65.59s-.3.43-.61.43c-.62,0-1.24,0-1.87,0-.41,0-.56.14-.54.54a3,3,0,0,1,0,.6c0,.39.16.5.52.49.75,0,1.51,0,2.27,0,.41,0,.69.1.72.57s-.36.46-.69.46c-1.09,0-2.18,0-3.26,0-.61,0-.72-.25-.71-.75,0-.77,0-1.55,0-2.33Z"/><path class="cls-2" d="M63,71c0-.87,0-1.73,0-2.6,0-.34.09-.47.45-.46q1.8,0,3.6,0c.35,0,.52.09.5.49S67.42,69,67,69c-.82,0-1.65,0-2.47,0-.53,0-.5.31-.47.65s-.2.81.46.8,1.33,0,2,0c.45,0,.67.21.67.63s-.34.39-.63.39c-.64,0-1.29,0-1.93,0-.49,0-.6.16-.58.61,0,1.16-.17,1,1,1,.64,0,1.29,0,1.93,0,.42,0,.52.18.54.56s-.12.49-.5.49c-1.19,0-2.39,0-3.59,0-.39,0-.49-.14-.48-.5,0-.87,0-1.73,0-2.6Z"/><path class="cls-2" d="M47.23,71c0-.87,0-1.73,0-2.6,0-.34.1-.47.45-.46,1.2,0,2.4,0,3.6,0,.37,0,.5.12.49.5s-.11.56-.53.55c-.82,0-1.64,0-2.46,0-.53,0-.5.32-.47.66s-.19.81.47.79,1.28,0,1.93,0c.39,0,.7.06.73.55s-.36.46-.68.46c-.64,0-1.29,0-1.93,0-.42,0-.54.14-.53.54,0,1.32-.13,1.07,1.08,1.1.65,0,1.29,0,1.94,0,.46,0,.45.29.48.62s-.19.43-.5.43c-1.19,0-2.39,0-3.59,0-.39,0-.49-.14-.48-.5C47.25,72.76,47.23,71.9,47.23,71Z"/><path class="cls-2" d="M68.74,3.26c0,.82,0,1.64,0,2.46,0,.41-.09.61-.56.61s-.55-.22-.54-.61,0-.89,0-1.34-.17-.6-.59-.6-1.11,0-1.67,0-.72.27-.65.74a12.92,12.92,0,0,1,.05,1.39c0,.41-.25.41-.53.41s-.61,0-.61-.4V.58c0-.43.3-.41.6-.41s.57,0,.55.47,0,1.11,0,1.66c0,.35.09.54.49.53q.9,0,1.8,0c.4,0,.5-.18.5-.52,0-.54,0-1.07,0-1.6s.24-.54.62-.55.55.18.54.56c0,.85,0,1.69,0,2.54Z"/><path class="cls-2" d="M37.78,72.72a2.67,2.67,0,0,1-.4,0c-.8-.15-1.22.19-1.39,1a.9.9,0,0,1-1.16.39c-.22-.14,0-.25,0-.37.75-1.74,1.5-3.49,2.26-5.23.12-.27.26-.55.66-.51s.61,0,.79.41q1.11,2.72,2.31,5.39c.13.31.06.34-.19.35-.43,0-.89.12-1-.54a1.06,1.06,0,0,0-1.37-.87,4.69,4.69,0,0,1-.53,0Zm-1-1c.64,0,1.2,0,1.77,0,.19,0,.26-.07.16-.3-.25-.55-.44-1.12-.67-1.68a.43.43,0,0,0-.25-.21c-.13,0-.15.1-.19.21Z"/><path class="cls-2" d="M117.35,74c-1,.19-1.12.19-1.46-.74a.79.79,0,0,0-.89-.59,8.07,8.07,0,0,1-1.39,0,1,1,0,0,0-1.26.89.86.86,0,0,1-1.16.49c-.18-.09-.1-.2,0-.32.79-1.79,1.57-3.59,2.37-5.39a.7.7,0,0,1,.72-.42.69.69,0,0,1,.73.51c.66,1.5,1.3,3,2,4.5Zm-3.16-2.33c1,0,1,0,.63-.93a2.71,2.71,0,0,1-.34-.91.36.36,0,0,0-.35-.34c-.16,0-.12.2-.17.31-.12.3-.25.59-.4.88C113.08,71.71,113.07,71.71,114.19,71.71Z"/><path class="cls-2" d="M54.4.18h1.33c.26,0,.54,0,.53.39s-.14.6-.53.6h-1.8c-.2,0-.5-.06-.53.26a2,2,0,0,0,0,1.05c.07.16.31,0,.48,0a2,2,0,1,1,1,3.88A3.23,3.23,0,0,1,52.52,6c-.27-.12-.67-.3-.4-.73s.48-.63.93-.2a1.64,1.64,0,0,0,1.21.43,1.07,1.07,0,0,0,1.05-1,1,1,0,0,0-1-1.06,1.84,1.84,0,0,0-1,.14.68.68,0,0,1-1-.65c0-.73.05-1.46.08-2.19,0-.4.19-.55.59-.52S53.93.18,54.4.18Z"/><path class="cls-2" d="M84.55,1.8c0,.52.39.65.77.76a9.34,9.34,0,0,1,1.54.53,1.62,1.62,0,0,1,.94,1.84,1.81,1.81,0,0,1-1.3,1.4,3.55,3.55,0,0,1-2.94-.53c-.27-.15-.42-.31-.14-.61s.24-.63.73-.25a2.49,2.49,0,0,0,1.58.58.94.94,0,0,0,1-.78c.08-.51-.37-.69-.78-.83s-1-.33-1.54-.53a1.74,1.74,0,0,1-1.06-1.52A2,2,0,0,1,84.62.18a3.37,3.37,0,0,1,2.6.31c.25.11.45.32.23.63s-.33.55-.73.32A2.2,2.2,0,0,0,85.3,1,.74.74,0,0,0,84.55,1.8Z"/><path class="cls-2" d="M89.87,74.34a5.17,5.17,0,0,1-2.21-.77c-.14-.13-.53-.23-.15-.53.2-.16.19-.65.7-.32a2.47,2.47,0,0,0,1.7.59c.42-.06.84-.13.89-.69s-.23-.79-.73-.92a11.66,11.66,0,0,1-1.61-.53,1.63,1.63,0,0,1-.9-1.87A1.82,1.82,0,0,1,88.84,68a3.15,3.15,0,0,1,2.51.33c.28.13.44.32.2.65s-.36.49-.74.25a2.42,2.42,0,0,0-1.16-.41.89.89,0,0,0-1,.67c-.12.55.36.78.77.89a10,10,0,0,1,1.54.54A1.75,1.75,0,0,1,92,72.47a1.83,1.83,0,0,1-1.25,1.63C90.47,74.19,90.17,74.26,89.87,74.34Z"/><path class="cls-2" d="M28.82,72.47c0,1.3-1.15,1.83-2.22,1.81a3.49,3.49,0,0,1-2-.63c-.29-.22-.46-.35-.17-.72s.38-.46.76-.15a2.27,2.27,0,0,0,1.65.53.9.9,0,0,0,.87-.75c.07-.49-.34-.68-.71-.83-.53-.2-1.08-.34-1.61-.54a1.67,1.67,0,0,1-1.05-1.58A1.92,1.92,0,0,1,25.55,68a3.2,3.2,0,0,1,2.6.27c.23.11.56.28.3.64s-.34.58-.82.25a1.84,1.84,0,0,0-1.31-.38c-.38.06-.68.21-.75.62a.7.7,0,0,0,.45.84c.59.27,1.25.34,1.84.65A1.57,1.57,0,0,1,28.82,72.47Z"/><path class="cls-2" d="M69,71c0-.82,0-1.64,0-2.47,0-.38.11-.59.54-.54,1,.1,2.09-.26,3.07.26a1.88,1.88,0,0,1,1.08,2.12A1.93,1.93,0,0,1,72.34,72a3.94,3.94,0,0,1-1.63.23c-.42,0-.63.11-.58.56,0,.24,0,.49,0,.73.05.46-.12.63-.6.63S69,73.9,69,73.52c0-.84,0-1.69,0-2.53Zm1.09-.92c0,1.11,0,1.11.75,1.11,1.27,0,1.78-.32,1.78-1.13s-.48-1-1.64-1C70.07,69,70.07,69,70.07,70.07Z"/><path class="cls-2" d="M105.42,3.15a2.08,2.08,0,0,0,2.13,2.34,2.38,2.38,0,0,0,1.3-.6c.41-.36.51.05.69.19s.21.42,0,.61a3.23,3.23,0,0,1-3.32.57A2.84,2.84,0,0,1,104.33,4,3,3,0,0,1,106,.37a3.2,3.2,0,0,1,3.41.28c.24.16.46.32.14.6s-.27.65-.77.28a2,2,0,0,0-3.21.74A2.5,2.5,0,0,0,105.42,3.15Z"/><path class="cls-2" d="M126.57,68c.48-.13.6.27.74.61.44,1.11.87,2.23,1.31,3.35,0,.12,0,.36.24.31a.46.46,0,0,0,.3-.33c.38-1,.77-2,1.12-3s.56-1.07,1.28-.94c.23,0,.3.09.19.34-.76,1.78-1.53,3.56-2.25,5.36a.57.57,0,0,1-.59.45.67.67,0,0,1-.73-.42c-.38-.88-.74-1.77-1.11-2.66s-.62-1.58-1-2.35S125.85,68,126.57,68Z"/><path class="cls-2" d="M60,.17h2c.34,0,.49.12.47.47s0,.59-.44.58a4.45,4.45,0,0,1-.73,0c-.69-.12-.82.23-.81.83,0,1.2,0,2.4,0,3.6,0,.36,0,.69-.53.68s-.56-.28-.56-.67c0-1.27,0-2.54,0-3.8,0-.48-.15-.71-.66-.64-.24,0-.49,0-.73,0-.41,0-.6-.1-.6-.56s.22-.5.58-.49Z"/><path class="cls-2" d="M109.17,71.6c0,.71,0,1.42,0,2.13,0,.48-.31.38-.58.39s-.51,0-.51-.39c0-1.36,0-2.71,0-4.06,0-.55-.18-.71-.68-.65-.19,0-.4,0-.6,0-.44,0-.63-.09-.64-.58s.31-.48.65-.47c1.24,0,2.48,0,3.73,0,.36,0,.52.09.5.48s0,.58-.5.59c-1.4,0-1.4.06-1.4,1.49Z"/><path class="cls-2" d="M120.38,71.57c0,.71,0,1.42,0,2.13,0,.45-.24.43-.55.43s-.55,0-.54-.44c0-1.29,0-2.58,0-3.86,0-.72-.22-.9-.86-.81-.15,0-.31,0-.46,0-.41,0-.59-.09-.6-.54s.24-.52.61-.52c1.24,0,2.48,0,3.73,0,.4,0,.54.12.54.53s-.15.53-.55.53c-1.36,0-1.36,0-1.36,1.41Z"/><path class="cls-2" d="M44,71.63c0,.69,0,1.38,0,2.06,0,.46-.25.43-.55.43s-.55,0-.55-.43c0-1.33,0-2.67,0-4,0-.51-.12-.74-.66-.67-.22,0-.44,0-.66,0-.43,0-.58-.11-.6-.55s.24-.51.61-.5c1.24,0,2.49,0,3.73,0,.4,0,.55.11.54.52s-.11.54-.54.54C44,69,44,69.06,44,70.43Z"/><path class="cls-2" d="M32.82,71.58c0,.62,0,1.24,0,1.86,0,.4,0,.72-.56.7s-.52-.29-.52-.67c0-1.28,0-2.57,0-3.86,0-.47-.13-.65-.59-.59-.22,0-.45,0-.67,0-.41,0-.65,0-.65-.55s.27-.5.62-.5c1.24,0,2.49,0,3.73,0,.42,0,.53.14.53.54s-.17.52-.56.52c-1.35,0-1.35,0-1.35,1.42Z"/><path class="cls-2" d="M91.82,3.78c0,.66,0,1.33,0,2,0,.45-.15.56-.57.56s-.53-.13-.52-.53c0-1.33,0-2.66,0-4,0-.47-.13-.65-.6-.6-.22,0-.44,0-.66,0-.42,0-.65,0-.66-.56s.28-.49.63-.49h3.72c.35,0,.55.06.52.47s0,.59-.49.59S92.15,1,91.9,1.36s-.07.89-.08,1.35,0,.71,0,1.07Z"/><path class="cls-2" d="M112.64,3.78c0-.69,0-1.38,0-2.06,0-.37-.08-.54-.48-.5s-.53,0-.79,0c-.45,0-.63-.11-.63-.59s.25-.47.59-.47c1.24,0,2.48,0,3.72,0,.38,0,.59,0,.56.49s-.08.56-.52.57c-1.39,0-1.39.06-1.38,1.44,0,1,0,2.08,0,3.13,0,.4-.12.53-.53.53s-.59-.1-.56-.55C112.66,5.11,112.64,4.45,112.64,3.78Z"/><path class="cls-2" d="M81.55,3.29c0,.82,0,1.64,0,2.46,0,.36-.07.57-.51.58s-.59-.13-.59-.56c0-1.66,0-3.33,0-5,0-.37.06-.62.54-.62s.56.27.55.67c0,.82,0,1.64,0,2.46Z"/><path class="cls-2" d="M102.63,3.24c0,.87,0,1.73,0,2.6,0,.38-.16.49-.52.49s-.58-.1-.58-.52c0-1.71,0-3.41,0-5.12,0-.41.17-.52.56-.53s.54.18.53.56c0,.84,0,1.68,0,2.52Z"/><path class="cls-2" d="M124.65,71.05c0,.87,0,1.73,0,2.59,0,.39-.12.52-.49.49s-.61,0-.6-.46q0-2.62,0-5.25c0-.51.29-.42.6-.45s.5.11.49.49c0,.86,0,1.73,0,2.59Z"/></g></g></svg>