<svg xmlns="http://www.w3.org/2000/svg" viewBox="0 0 38.91 17.83"><defs><style>.cls-1{fill:#fcfdfd;}.cls-2{fill:#e61c27;}</style></defs><title>6Asset 1</title><g id="Layer_2" data-name="Layer 2"><g id="Layer_1-2" data-name="Layer 1"><path class="cls-1" d="M27.87,5.68V6c0,.87,0,1.73,0,2.6,0,.11,0,.15-.15.15H26.47c-.09,0-.14,0-.14-.13V3.26c0-.11,0-.14.14-.14h1.19a.23.23,0,0,1,.2.1c.7.91,1.4,1.81,2.11,2.71L30,6s0-.1,0-.15c0-.85,0-1.71,0-2.56,0-.14,0-.18.18-.18h1.22c.11,0,.16,0,.16.15q0,2.66,0,5.31c0,.12,0,.14-.15.14H30.37a.24.24,0,0,1-.21-.11L28,5.82Z"/><path class="cls-1" d="M13,5.91V3.27c0-.12,0-.15.15-.15h4.19c.13,0,.16,0,.16.16,0,.35,0,.7,0,1,0,.12,0,.14-.15.14H14.69c-.13,0-.17,0-.16.15a4.51,4.51,0,0,1,0,.52c0,.12,0,.16.16.16H17c.14,0,.18,0,.17.18,0,.3,0,.6,0,.89,0,.13,0,.17-.15.16H14.7c-.14,0-.18,0-.17.17a4.68,4.68,0,0,1,0,.53c0,.13,0,.17.16.17h2.66c.14,0,.19,0,.18.18,0,.35,0,.69,0,1,0,.1,0,.13-.12.13H13.1c-.11,0-.11-.06-.11-.14Z"/><path class="cls-1" d="M7.28,12.75c.2-.67.39-1.3.59-1.94.06-.2.13-.41.18-.62s0-.1.12-.1H9.43L9,11.27c-.37,1.12-.74,2.23-1.1,3.35a.2.2,0,0,1-.24.17H6.91a.18.18,0,0,1-.22-.15c-.27-.8-.56-1.59-.83-2.39l-.05-.1c-.14.41-.27.79-.41,1.17s-.31.9-.47,1.35a.14.14,0,0,1-.16.12H3.89c-.09,0-.14,0-.17-.11l-1.5-4.55s0,0,0,0H3.5c.09,0,.1.06.11.12l.71,2.33a1,1,0,0,0,.07.21l.16-.5c.22-.66.45-1.33.66-2a.2.2,0,0,1,.23-.17,4.7,4.7,0,0,0,.75,0,.23.23,0,0,1,.27.19c.25.79.52,1.57.78,2.36Z"/><path class="cls-1" d="M12.78,8.72c-.53,0-1,0-1.53,0a.52.52,0,0,1-.54-.29c-.36-.56-.76-1.11-1.13-1.67-.07-.11-.1-.09-.18,0s-.35.32-.43.51a2,2,0,0,0,0,.65V8.6c0,.09,0,.12-.11.12H7.49c-.09,0-.1,0-.1-.11V3.25c0-.1,0-.13.12-.13h1.3c.12,0,.14,0,.14.15V5.36l.43-.49,1.38-1.64A.29.29,0,0,1,11,3.12h1.7l-.54.63-1.5,1.7c-.08.08,0,.12,0,.18l2,2.94Z"/><path class="cls-1" d="M34,11.88l1-1.67a.22.22,0,0,1,.22-.12h1.09c.1,0,.14,0,.14.13v4.41c0,.1,0,.13-.12.13h-1c-.12,0-.15,0-.15-.15,0-.76,0-1.53,0-2.29v-.14c-.07,0-.08.05-.1.08-.34.51-.67,1-1,1.54-.08.13-.12.1-.19,0-.32-.5-.65-1-1-1.5,0,0-.06-.08-.11-.16v2.48c0,.11,0,.15-.14.15h-1c-.12,0-.15,0-.15-.16V10.23c0-.11,0-.14.14-.14h1a.28.28,0,0,1,.3.17L34,11.78S34,11.84,34,11.88Z"/><path class="cls-1" d="M20.68,6.63l1-2.73.24-.66a.14.14,0,0,1,.16-.12h1.59l-.32.81q-.95,2.34-1.88,4.68a.19.19,0,0,1-.21.14H20.06a.14.14,0,0,1-.16-.11Q18.82,6,17.73,3.28c-.06-.15,0-.16.12-.16h1.44c.1,0,.14,0,.18.13.37,1.06.76,2.12,1.14,3.19Z"/><path class="cls-1" d="M14.81,12.52V10.24c0-.11,0-.15.14-.15h1c.1,0,.12,0,.12.13,0,1.47,0,2.94,0,4.41,0,.12,0,.13-.14.13H15.1a.25.25,0,0,1-.23-.11c-.57-.73-1.14-1.46-1.7-2.2L13,12.27c0,.05,0,.11,0,.16,0,.72,0,1.45,0,2.17,0,.13,0,.16-.16.16h-1c-.1,0-.15,0-.15-.14,0-1.47,0-2.93,0-4.4,0-.11,0-.13.14-.13h.93a.27.27,0,0,1,.24.12l1.71,2.2Z"/><path class="cls-1" d="M16.79,12.4c0-.72,0-1.44,0-2.16,0-.11,0-.15.15-.15.7,0,1.41,0,2.11,0a2.24,2.24,0,0,1,2,1.35,2.3,2.3,0,0,1-1.67,3.19,4.91,4.91,0,0,1-.85.09H17c-.14,0-.19,0-.19-.18C16.8,13.85,16.79,13.13,16.79,12.4Zm1.3,0v1.05c0,.08,0,.13.11.13s.45,0,.67,0a1.08,1.08,0,0,0,1-1A1.09,1.09,0,0,0,19,11.31a3.42,3.42,0,0,0-.78-.06c-.13,0-.18,0-.17.16C18.1,11.75,18.09,12.08,18.09,12.42Z"/><path class="cls-1" d="M25.92,12.41c0,.73,0,1.45,0,2.18,0,.13,0,.17-.17.17h-1c-.13,0-.15,0-.15-.15V13.13c0-.1,0-.14-.13-.14H23.12c-.12,0-.14,0-.14.14v1.49c0,.11,0,.14-.13.14h-1c-.11,0-.14,0-.14-.14,0-1.47,0-2.94,0-4.4,0-.1,0-.13.13-.13h1.07c.09,0,.11,0,.11.12v1.47c0,.11,0,.16.14.16h1.36c.11,0,.13,0,.13-.13,0-.49,0-1,0-1.46,0-.13,0-.15.16-.15h1c.11,0,.15,0,.15.15C25.92,11,25.92,11.69,25.92,12.41Z"/><path class="cls-1" d="M30.64,14.76h-.56a.16.16,0,0,1-.18-.12l-.24-.6c0-.09-.07-.11-.16-.11H28c-.1,0-.13,0-.16.11l-.24.61c0,.07-.06.11-.15.11H26.26c-.13,0-.11,0-.07-.14l1.1-2.6c.26-.61.52-1.23.77-1.84a.16.16,0,0,1,.18-.12h1a.17.17,0,0,1,.17.12q.93,2.22,1.88,4.44c.05.13,0,.14-.1.14ZM29.23,12.9l-.5-1.28-.51,1.28Z"/><path class="cls-2" d="M38.91,9v8c0,.26-.07.33-.33.33H34.1c-.14,0-.19,0-.19-.18s.05-.17.19-.17h4.21c.23,0,.23,0,.23-.24q0-7.76,0-15.5c0-.14,0-.18-.18-.18H28.79c-.15,0-.19,0-.19-.18s0-.18.19-.18H38.6c.23,0,.31.08.31.3V9Z"/><path class="cls-2" d="M0,9v-8C0,.69.07.63.32.63H9.49c.22,0,.44,0,.66,0s.15.09.16.2,0,.16-.17.16H.7c-.37,0-.37,0-.37.37V16.7c0,.22,0,.23.22.22H4.8c.16,0,.21,0,.19.2s0,.14-.13.14H.26C.05,17.26,0,17.2,0,17V9Z"/><path class="cls-1" d="M25.5,5.92V8.55c0,.14,0,.17-.16.17H24.06c-.1,0-.13,0-.13-.13V3.25c0-.11,0-.13.14-.13h1.28c.12,0,.15,0,.15.16Z"/><path class="cls-1" d="M11,12.41c0,.73,0,1.45,0,2.18,0,.14,0,.17-.18.17h-1c-.11,0-.14,0-.14-.14,0-1.46,0-2.93,0-4.39,0-.12,0-.14.15-.14h1c.12,0,.15,0,.15.15C11,11,11,11.69,11,12.41Z"/><path class="cls-2" d="M24.9,17.25v-.82c0-.1,0-.13.13-.13s.13,0,.13.12c0,.41,0,.81,0,1.22,0,0,0,.12,0,.13s-.15,0-.22-.05l-.74-1a1,1,0,0,0,0,.35v.54c0,.1,0,.13-.12.13s-.14,0-.14-.14c0-.38,0-.77,0-1.16,0-.06-.05-.15.05-.17a.22.22,0,0,1,.25.07l.59.77.09.11Z"/><path class="cls-2" d="M24,1.49c-.32.13-.39-.13-.51-.3A.32.32,0,0,0,23.15,1c-.09,0-.11,0-.11.12a2.25,2.25,0,0,1,0,.26c0,.1,0,.14-.13.14s-.13-.05-.13-.14q0-.6,0-1.2c0-.1,0-.15.13-.14s.41,0,.61,0a.47.47,0,0,1,.4.71.4.4,0,0,1-.18.16c-.08,0-.08.09,0,.16S23.91,1.35,24,1.49Zm-1-1c0,.31,0,.25.26.26l.19,0c.17,0,.22-.1.21-.27s-.1-.2-.24-.2h-.18C23,.29,23,.29,23,.52Z"/><path class="cls-2" d="M14.76,17.75a.31.31,0,0,1-.42-.15,2.53,2.53,0,0,1-.18-.27.14.14,0,0,0-.13-.07c-.22,0-.22,0-.22.21a.85.85,0,0,0,0,.16c0,.12,0,.15-.15.15s-.13-.06-.13-.15c0-.39,0-.77,0-1.16,0-.14,0-.18.18-.17h.55a.49.49,0,0,1,.46.33.47.47,0,0,1-.24.55c-.09.05-.07.07,0,.13s.1.15.15.22Zm-.69-1.21H13.9c-.05,0-.09,0-.1.06V17a.08.08,0,0,0,.09.07,1.29,1.29,0,0,0,.44,0,.2.2,0,0,0,.13-.24c0-.11-.05-.2-.18-.2Z"/><path class="cls-2" d="M19.21,17.76c-.18,0-.33,0-.41-.15s-.12-.15-.16-.23-.22-.11-.34-.11-.06.05-.06.09v.32c0,.12-.07.09-.14.09s-.12,0-.12-.09c0-.43,0-.85,0-1.28,0-.07,0-.1.1-.1h.66a.44.44,0,0,1,.4.3c.08.29,0,.4-.17.55s-.13.1,0,.21A3.46,3.46,0,0,1,19.21,17.76Zm-.68-1.21h-.2c-.1,0-.1.07-.09.13s-.07.26.07.36h0c.13,0,.25,0,.38,0a.23.23,0,0,0,.19-.26.2.2,0,0,0-.22-.21Z"/><path class="cls-2" d="M18.05,0a.78.78,0,0,1,.78.34.72.72,0,0,1,0,.77.67.67,0,0,1-.6.36h-.48c-.11,0-.14,0-.14-.14,0-.41,0-.82,0-1.22,0-.09,0-.12.12-.12A3,3,0,0,0,18.05,0Zm-.16.75h0v.37s0,.1.05.1.37.05.53-.07a.51.51,0,0,0,.14-.68A.66.66,0,0,0,17.94.3c-.05,0-.05.07-.05.12Z"/><path class="cls-2" d="M12.16.42A.35.35,0,0,1,12,.69s-.09.08,0,.12a.32.32,0,0,1,.17.32.42.42,0,0,1-.28.37.68.68,0,0,1-.62,0,.36.36,0,0,1-.1-.61c.08-.08.09-.12,0-.21a.35.35,0,0,1,0-.49.58.58,0,0,1,.87.12A.28.28,0,0,1,12.16.42Zm-.54.9c.19,0,.3-.07.3-.22s-.09-.22-.27-.22-.32.09-.32.23S11.46,1.32,11.62,1.32ZM11.9.45a.23.23,0,0,0-.26-.22c-.16,0-.24.07-.25.2a.26.26,0,0,0,.25.25A.27.27,0,0,0,11.9.45Z"/><path class="cls-2" d="M23,16.3h.39c.08,0,.17,0,.16.12s-.07.13-.18.13-.3,0-.46,0-.19,0-.19.17.06.19.2.18h.38c.1,0,.15,0,.15.13s-.06.12-.14.12-.3,0-.45,0-.14,0-.13.13v.08c0,.13,0,.19.16.18s.35,0,.53,0,.15,0,.15.13-.06.11-.15.11h-.83c-.12,0-.14-.06-.14-.16V16.46c0-.12,0-.17.15-.16Z"/><path class="cls-2" d="M19.55,17c0-.19,0-.39,0-.59s0-.14.14-.14h.83c.06,0,.14,0,.12.1s0,.16-.13.15-.38,0-.56,0-.12.09-.12.18,0,.17.12.16h.44c.09,0,.16,0,.16.13s-.08.12-.15.12H20c-.09,0-.13,0-.12.11v.15c0,.09,0,.13.12.13s.39,0,.58,0,.13,0,.14.14-.06.1-.13.1h-.85c-.11,0-.14,0-.14-.14V17Z"/><path class="cls-2" d="M31.91,17v-.61c0-.09,0-.13.13-.13h.83c.09,0,.13,0,.13.12s0,.13-.14.13-.37,0-.56,0-.12.09-.12.17,0,.18.12.17h.45c.1,0,.15,0,.15.14s-.07.11-.14.11h-.45c-.1,0-.14,0-.13.13v.14c0,.09,0,.12.12.12s.37,0,.55,0,.16,0,.17.13-.09.11-.16.11h-.79c-.14,0-.17-.06-.17-.18s0-.38,0-.56Z"/><path class="cls-2" d="M15.1,17c0-.2,0-.41,0-.62s0-.11.11-.11h.86c.09,0,.13,0,.12.12s0,.13-.12.13-.4,0-.59,0-.13.07-.12.15,0,.2.11.19H16c.11,0,.16.05.16.15s-.08.1-.15.1H15.5c-.12,0-.15,0-.14.14,0,.28,0,.24.25.25h.46c.1,0,.13,0,.13.13s0,.12-.12.12c-.29,0-.58,0-.86,0-.1,0-.12,0-.12-.12s0-.42,0-.63Z"/><path class="cls-2" d="M11.33,17v-.62c0-.08,0-.11.1-.11h.87c.09,0,.12,0,.12.12s0,.13-.13.13H11.7c-.13,0-.12.07-.11.15s-.05.2.11.19h.46c.09,0,.17,0,.18.14s-.09.11-.17.11h-.46c-.1,0-.13,0-.13.13,0,.32,0,.26.26.27h.47c.11,0,.11.06.11.14s0,.11-.12.11c-.28,0-.57,0-.86,0-.09,0-.12,0-.11-.12Z"/><path class="cls-2" d="M16.48.78c0,.2,0,.39,0,.59s0,.15-.14.15-.13-.06-.13-.15,0-.21,0-.32,0-.14-.14-.14h-.4c-.13,0-.17.06-.15.17s0,.23,0,.34-.06.1-.13.09-.15,0-.15-.09V.14c0-.1.07-.1.15-.1s.13,0,.13.11v.4c0,.09,0,.13.12.13a3.08,3.08,0,0,1,.43,0c.09,0,.12,0,.12-.13V.17c0-.12.05-.13.15-.13s.13,0,.12.13V.78Z"/><path class="cls-2" d="M9.06,17.44H9c-.19,0-.29,0-.33.23a.22.22,0,0,1-.28.1s0-.06,0-.09l.54-1.26c0-.06.06-.13.16-.12s.15,0,.19.1c.18.43.36.86.55,1.29,0,.07,0,.08,0,.08s-.21,0-.24-.12a.25.25,0,0,0-.33-.21Zm-.23-.24h.42c.05,0,.07,0,0-.07s-.1-.27-.16-.41a.15.15,0,0,0-.06,0s0,0,0,0S8.9,17,8.83,17.2Z"/><path class="cls-2" d="M28.14,17.76c-.25,0-.27,0-.35-.18a.17.17,0,0,0-.21-.14h-.34a.24.24,0,0,0-.3.21.21.21,0,0,1-.28.12s0-.05,0-.08l.57-1.29a.17.17,0,0,1,.17-.1.16.16,0,0,1,.18.12c.16.36.31.72.46,1.08C28.07,17.58,28.1,17.67,28.14,17.76Zm-.76-.56c.25,0,.25,0,.15-.23,0-.07-.08-.13-.08-.22a.09.09,0,0,0-.08-.08s0,0,0,.08a2,2,0,0,1-.1.21C27.12,17.2,27.12,17.2,27.38,17.2Z"/><path class="cls-2" d="M13,0h.32c.07,0,.13,0,.13.1s0,.14-.13.14h-.43s-.12,0-.12.06a.57.57,0,0,0,0,.26s.08,0,.12,0a.49.49,0,0,1,.58.29.48.48,0,0,1-.34.64.77.77,0,0,1-.58-.08c-.06,0-.16-.07-.09-.18s.11-.15.22-.05a.36.36,0,0,0,.29.11.26.26,0,0,0,.25-.25A.23.23,0,0,0,13,.81a.47.47,0,0,0-.23,0,.17.17,0,0,1-.24-.16c0-.17,0-.35,0-.53s0-.13.14-.12S12.93,0,13,0Z"/><path class="cls-2" d="M20.28.43c0,.13.09.16.18.18a2.32,2.32,0,0,1,.37.13.4.4,0,0,1,.23.44.46.46,0,0,1-.32.34.83.83,0,0,1-.7-.13c-.07,0-.1-.07,0-.14s0-.16.17-.07a.56.56,0,0,0,.38.14.22.22,0,0,0,.24-.18c0-.13-.09-.17-.19-.2L20.24.81A.4.4,0,0,1,20,.45a.47.47,0,0,1,.3-.41.83.83,0,0,1,.62.08c.07,0,.11.07.06.15s-.08.13-.17.07a.52.52,0,0,0-.34-.1C20.34.25,20.27.31,20.28.43Z"/><path class="cls-2" d="M21.55,17.83a1.25,1.25,0,0,1-.53-.19s-.13-.05,0-.12.05-.16.17-.08a.66.66,0,0,0,.41.14c.1,0,.2,0,.21-.17s-.05-.18-.17-.22a2.91,2.91,0,0,1-.39-.12.39.39,0,0,1-.21-.45.42.42,0,0,1,.3-.32.77.77,0,0,1,.61.08c.06,0,.1.08,0,.16s-.08.11-.17.05a.58.58,0,0,0-.28-.09.2.2,0,0,0-.24.16c0,.13.08.18.18.21a2.32,2.32,0,0,1,.37.13.44.44,0,0,1,.26.38.46.46,0,0,1-.3.39Z"/><path class="cls-2" d="M6.91,17.38c0,.31-.28.44-.53.43a.8.8,0,0,1-.48-.15c-.07-.05-.11-.08,0-.17s.09-.11.19,0a.54.54,0,0,0,.39.13.21.21,0,0,0,.21-.18c0-.12-.08-.16-.17-.2l-.39-.13a.41.41,0,0,1-.25-.38.44.44,0,0,1,.29-.38.72.72,0,0,1,.62.06s.13.07.07.16-.08.13-.19,0a.5.5,0,0,0-.32-.09c-.09,0-.16.05-.18.15a.17.17,0,0,0,.11.2c.14.07.3.09.44.16A.37.37,0,0,1,6.91,17.38Z"/><path class="cls-2" d="M16.54,17v-.59c0-.09,0-.14.13-.13s.5-.06.74.06a.47.47,0,0,1,.26.51.49.49,0,0,1-.32.39,1.06,1.06,0,0,1-.39.06c-.1,0-.15,0-.14.13a1.08,1.08,0,0,0,0,.18c0,.11,0,.15-.15.15s-.13-.06-.13-.15V17Zm.26-.22c0,.27,0,.27.18.27s.43-.08.43-.27-.12-.25-.39-.25S16.8,16.55,16.8,16.8Z"/><path class="cls-2" d="M25.28.75a.51.51,0,0,0,.51.57.57.57,0,0,0,.31-.15c.1-.08.12,0,.17.05s.05.1,0,.14a.78.78,0,0,1-.8.14A.68.68,0,0,1,25,1a.73.73,0,0,1,.39-.86.76.76,0,0,1,.82.07c.06,0,.11.07,0,.14s-.07.16-.19.07a.47.47,0,0,0-.77.17A.59.59,0,0,0,25.28.75Z"/><path class="cls-2" d="M30.35,16.3c.12,0,.15.07.18.15.11.26.21.53.31.8,0,0,0,.09.06.08a.11.11,0,0,0,.07-.08c.09-.24.19-.48.27-.72s.14-.26.31-.23.07,0,.05.08q-.29.64-.54,1.29a.17.17,0,0,1-.32,0L30.47,17c-.07-.19-.15-.38-.23-.57S30.18,16.3,30.35,16.3Z"/><path class="cls-2" d="M14.38,0h.48c.08,0,.12,0,.11.11s0,.15-.1.14a1.08,1.08,0,0,1-.18,0c-.17,0-.2.06-.19.2v.86c0,.09,0,.17-.13.17s-.13-.07-.13-.16c0-.31,0-.61,0-.91,0-.12,0-.17-.16-.16a1,1,0,0,1-.17,0c-.1,0-.15,0-.15-.13S13.82,0,13.9,0Z"/><path class="cls-2" d="M26.18,17.17c0,.17,0,.34,0,.51s-.07.09-.14.09-.12,0-.12-.09c0-.32,0-.65,0-1,0-.14-.05-.17-.17-.16h-.14c-.11,0-.15,0-.15-.13s.07-.12.15-.12h.89c.09,0,.13,0,.12.12s0,.13-.12.14c-.33,0-.33,0-.33.35Z"/><path class="cls-2" d="M28.87,17.16c0,.17,0,.34,0,.51s-.06.11-.13.11-.13,0-.13-.11c0-.31,0-.62,0-.92s-.06-.22-.21-.2H28.3c-.1,0-.14,0-.15-.13s.06-.12.15-.12h.9c.09,0,.13,0,.12.13s0,.12-.13.12c-.32,0-.32,0-.32.34Z"/><path class="cls-2" d="M10.56,17.18c0,.16,0,.33,0,.49s-.06.1-.13.11-.13,0-.13-.11c0-.32,0-.64,0-1,0-.12,0-.18-.16-.16H10c-.1,0-.14,0-.14-.13s.05-.12.14-.12h.9c.09,0,.13,0,.13.12s0,.13-.13.13c-.33,0-.33,0-.33.34Z"/><path class="cls-2" d="M7.87,17.17v.44c0,.1,0,.17-.13.17s-.13-.07-.13-.16c0-.31,0-.62,0-.93,0-.11,0-.15-.15-.14H7.31c-.1,0-.15,0-.15-.13s.06-.12.15-.12H8.2c.1,0,.13,0,.13.13s0,.12-.14.12c-.32,0-.32,0-.32.34Z"/><path class="cls-2" d="M22,.91c0,.16,0,.32,0,.47s0,.14-.13.14-.13,0-.13-.13c0-.32,0-.64,0-1,0-.11,0-.15-.14-.14a.86.86,0,0,1-.16,0c-.1,0-.15,0-.16-.13s.07-.12.15-.12h.9c.08,0,.13,0,.12.11s0,.15-.12.15S22.1.24,22,.33s0,.21,0,.32V.91Z"/><path class="cls-2" d="M27,.91V.41c0-.09,0-.13-.11-.12a1.2,1.2,0,0,1-.19,0c-.11,0-.15,0-.16-.14S26.62,0,26.7,0h.89c.09,0,.14,0,.13.12s0,.13-.12.13c-.33,0-.33,0-.33.35s0,.5,0,.75,0,.13-.13.13-.14,0-.13-.13S27,1.07,27,.91Z"/><path class="cls-2" d="M19.56.79v.59c0,.08,0,.14-.12.14s-.15,0-.14-.14c0-.4,0-.79,0-1.19,0-.09,0-.15.13-.15s.14.06.14.16,0,.39,0,.59Z"/><path class="cls-2" d="M24.61.78V1.4c0,.09,0,.12-.12.12s-.14,0-.14-.13V.17c0-.1,0-.13.14-.13s.13,0,.12.13V.78Z"/><path class="cls-2" d="M29.89,17v.62c0,.09,0,.12-.11.12s-.15,0-.15-.11q0-.63,0-1.26c0-.12.07-.1.15-.11s.12,0,.11.12V17Z"/></g></g></svg>