<svg xmlns="http://www.w3.org/2000/svg" viewBox="0 0 342.35 156.86"><defs><style>.cls-1{fill:#fcfdfd;}.cls-2{fill:#e61c27;}</style></defs><title>7Asset 1</title><g id="Layer_2" data-name="Layer 2"><g id="Layer_1-2" data-name="Layer 1"><path class="cls-1" d="M245.28,50v2.58c0,7.6,0,15.2,0,22.81,0,1-.15,1.37-1.27,1.34-3.71-.08-7.42,0-11.12,0-.83,0-1.23-.09-1.23-1.1q.06-23.44,0-46.89c0-1,.3-1.27,1.27-1.25,3.48.05,7,0,10.42,0a1.94,1.94,0,0,1,1.75.87q9.25,12,18.56,23.87c.17.22.35.43.55.67.48-.38.23-.88.24-1.3,0-7.51,0-15,0-22.53,0-1.22.3-1.62,1.56-1.59,3.57.08,7.14.06,10.71,0,1,0,1.38.19,1.38,1.3q-.06,23.37,0,46.74c0,1-.34,1.23-1.28,1.21q-4.79-.08-9.57,0a2.07,2.07,0,0,1-1.86-.93q-9.51-12.3-19.07-24.53C246.06,50.92,245.78,50.6,245.28,50Z"/><path class="cls-1" d="M114.32,52c0-7.74,0-15.49,0-23.23,0-1,.22-1.34,1.31-1.34q18.44.06,36.88,0c1.15,0,1.42.36,1.4,1.44q-.1,4.58,0,9.15c0,1-.31,1.22-1.26,1.22-7.79,0-15.58,0-23.37,0-1.09,0-1.47.26-1.39,1.38a35.72,35.72,0,0,1,0,4.51c-.06,1.08.23,1.43,1.38,1.42,6.9-.06,13.8,0,20.69-.06,1.26,0,1.59.33,1.55,1.56-.1,2.63-.08,5.26,0,7.89,0,1.09-.25,1.42-1.38,1.41-6.9,0-13.8,0-20.7,0-1.25,0-1.63.29-1.54,1.54a32.66,32.66,0,0,1,0,4.64c-.08,1.15.24,1.51,1.44,1.5,7.79-.06,15.58,0,23.37-.06,1.21,0,1.64.28,1.6,1.56-.09,3-.06,6.1,0,9.15,0,.85-.2,1.11-1.09,1.11q-18.93,0-37.87,0c-1,0-1-.48-1-1.19Q114.32,63.77,114.32,52Z"/><path class="cls-1" d="M64.08,112.18c1.76-5.84,3.45-11.43,5.14-17,.56-1.84,1.15-3.66,1.64-5.51.17-.6.37-.86,1-.86,3.65,0,7.31,0,11.12,0-1.17,3.53-2.29,7-3.42,10.36-3.25,9.83-6.53,19.65-9.75,29.49-.36,1.1-.8,1.57-2,1.51-2.35-.11-4.7-.09-7,0a1.63,1.63,0,0,1-1.9-1.32c-2.41-7-4.88-14-7.34-21-.07-.21-.17-.42-.38-.94l-3.59,10.31c-1.39,4-2.8,7.93-4.13,11.91a1.29,1.29,0,0,1-1.48,1.07c-2.58-.06-5.16,0-7.74,0-.74,0-1.18-.13-1.45-.94q-6.6-20-13.25-40.06a.87.87,0,0,1,0-.34c3.74,0,7.5,0,11.25,0,.82,0,.86.51,1,1q3.1,10.26,6.19,20.52c.15.48.31,1,.6,1.85.56-1.71,1-3,1.45-4.38C42,102,44,96.11,45.84,90.23c.36-1.11.79-1.58,2-1.51a63.37,63.37,0,0,0,6.61,0,2,2,0,0,1,2.35,1.64c2.23,6.94,4.55,13.86,6.85,20.79C63.76,111.41,63.88,111.67,64.08,112.18Z"/><path class="cls-1" d="M112.42,76.69c-4.61,0-9-.13-13.4.06a4.73,4.73,0,0,1-4.82-2.54c-3.15-5-6.61-9.77-9.87-14.69-.64-1-1-.82-1.57-.08-1.28,1.5-3.11,2.75-3.8,4.46s-.19,3.79-.2,5.72,0,4,0,6c0,.8-.21,1-1,1q-5.92-.06-11.83,0c-.78,0-.92-.28-.92-1q0-23.58,0-47.17c0-.86.24-1.11,1.11-1.1q5.7.08,11.4,0c1,0,1.27.36,1.26,1.31,0,5.54,0,11.08,0,16.62v1.78c1.41-1.64,2.59-3,3.75-4.34q6.09-7.19,12.17-14.4a2.46,2.46,0,0,1,2.14-1c4.46,0,8.92,0,13.38,0h1.58c-1.75,2-3.26,3.75-4.79,5.48-4.4,5-8.78,10-13.23,15-.62.7-.35,1.08,0,1.64q8.88,12.9,17.74,25.82C111.8,75.76,112.05,76.14,112.42,76.69Z"/><path class="cls-1" d="M299.54,104.54c3-4.94,6.07-9.78,9-14.66a2,2,0,0,1,2-1.1c3.19.06,6.38,0,9.58,0,.84,0,1.21.1,1.21,1.11q-.06,19.42,0,38.86c0,.84-.2,1.12-1.09,1.11q-4.58-.09-9.15,0c-1.05,0-1.24-.4-1.24-1.33,0-6.71,0-13.42,0-20.14v-1.24c-.6,0-.66.44-.84.71-3,4.5-5.93,9-8.82,13.54-.72,1.13-1,.89-1.64-.06-2.84-4.41-5.73-8.79-8.61-13.17-.24-.38-.52-.73-1-1.4v2.94c0,6.29,0,12.57,0,18.86,0,.95-.2,1.31-1.22,1.29q-4.36-.1-8.73,0c-1.09,0-1.33-.38-1.33-1.4q0-19.22,0-38.44c0-1,.24-1.27,1.24-1.25,3.05.07,6.1.1,9.15,0a2.59,2.59,0,0,1,2.64,1.49c2.69,4.5,5.48,8.94,8.23,13.4C299.13,103.93,299.3,104.19,299.54,104.54Z"/><path class="cls-1" d="M182,58.3c3-8.21,5.8-16.11,8.64-24,.69-1.93,1.39-3.86,2.06-5.81a1.27,1.27,0,0,1,1.42-1c4.6,0,9.2,0,14,0-1,2.42-1.87,4.75-2.8,7.06Q197,55.15,188.7,75.76A1.62,1.62,0,0,1,186.89,77c-3.47-.06-6.95,0-10.42,0a1.26,1.26,0,0,1-1.4-1q-9.49-23.62-19-47.2c-.51-1.25-.11-1.37,1-1.36q6.33.06,12.67,0a1.38,1.38,0,0,1,1.58,1.1q5,14.06,10.08,28.09Z"/><path class="cls-1" d="M130.31,110.2c0-6.94,0-13.51,0-20.08,0-1,.16-1.38,1.27-1.35,3,.09,6,.07,9,0,.89,0,1.08.26,1.08,1.1q0,19.44,0,38.86c0,1-.38,1.14-1.22,1.12-2.54,0-5.07-.06-7.61,0a2.17,2.17,0,0,1-2-1c-5-6.45-10-12.88-15-19.32l-1.33-1.65c-.36.49-.19,1-.19,1.4,0,6.39,0,12.77,0,19.15,0,1.13-.31,1.41-1.4,1.38-2.91-.07-5.82-.06-8.73,0-.92,0-1.32-.15-1.32-1.21q.06-19.35,0-38.71c0-.94.29-1.18,1.19-1.16,2.72.06,5.45.06,8.17,0a2.31,2.31,0,0,1,2.11,1c5,6.49,10,13,15.08,19.43C129.65,109.48,129.87,109.7,130.31,110.2Z"/><path class="cls-1" d="M147.77,109.13c0-6.33,0-12.67,0-19,0-1,.14-1.39,1.27-1.35,6.19.18,12.4-.38,18.57.33,7.87.91,14.35,4.21,17.53,11.94,4.1,9.94.92,24.42-14.66,28a34.18,34.18,0,0,1-7.54.78c-4.51,0-9,0-13.52,0-1.24,0-1.68-.24-1.66-1.59C147.82,121.9,147.78,115.52,147.77,109.13Zm11.41.14c0,3.1,0,6.19,0,9.28,0,.72.1,1.15,1,1.11,2-.09,3.94,0,5.89-.18a9.49,9.49,0,0,0,8.82-8.69c.44-6-2.13-10-7.36-11.31-2.25-.59-4.55-.41-6.84-.51-1.13,0-1.54.24-1.5,1.45C159.25,103.37,159.18,106.32,159.18,109.27Z"/><path class="cls-1" d="M228.1,109.22c0,6.39,0,12.77,0,19.15,0,1.12-.2,1.55-1.43,1.51-3-.1-5.92-.09-8.87,0-1.11,0-1.31-.34-1.29-1.35.05-4.32,0-8.64,0-13,0-.94-.17-1.29-1.21-1.27q-6,.09-12,0c-1,0-1.23.33-1.22,1.28,0,4.36,0,8.73,0,13.09,0,.91-.23,1.21-1.17,1.2q-4.58-.09-9.15,0c-.95,0-1.19-.33-1.19-1.23q0-19.36,0-38.72c0-.84.18-1.14,1.08-1.13,3.15.06,6.29,0,9.44,0,.83,0,1,.29,1,1,0,4.32,0,8.63,0,13,0,1,.17,1.38,1.28,1.36,4-.07,8-.06,12,0,.95,0,1.15-.31,1.15-1.2-.05-4.27,0-8.54-.06-12.81,0-1.16.37-1.37,1.42-1.35q4.42.1,8.87,0c1,0,1.33.21,1.32,1.29C228.07,96.46,228.1,102.84,228.1,109.22Z"/><path class="cls-1" d="M269.59,129.85c-1.64,0-3.29-.06-4.93,0a1.38,1.38,0,0,1-1.56-1c-.68-1.79-1.45-3.55-2.11-5.34a1.27,1.27,0,0,0-1.44-1c-4.55,0-9.1,0-13.65,0a1.28,1.28,0,0,0-1.41,1c-.66,1.79-1.41,3.55-2.09,5.34a1.22,1.22,0,0,1-1.3,1c-3.33,0-6.67-.06-10,0-1.22,0-1-.43-.68-1.22q4.86-11.41,9.67-22.84c2.29-5.42,4.6-10.83,6.86-16.27a1.39,1.39,0,0,1,1.52-1c2.95.06,5.91.06,8.86,0a1.4,1.4,0,0,1,1.51,1.07q8.24,19.56,16.54,39.1c.47,1.1.13,1.23-.87,1.19C272.87,129.8,271.23,129.85,269.59,129.85Zm-12.36-16.3c-1.5-3.82-2.93-7.45-4.43-11.28-1.55,3.89-3,7.55-4.48,11.28Z"/><path class="cls-2" d="M342.34,78.87V149c0,2.28-.56,2.84-2.85,2.84-13.14,0-26.29,0-39.43,0-1.2,0-1.64-.27-1.64-1.55s.44-1.57,1.63-1.57c12.35,0,24.69,0,37,0,2.06,0,2.07,0,2.07-2.05q0-68.23,0-136.45c0-1.23-.31-1.6-1.56-1.6q-42.18.06-84.35.06c-1.24,0-1.63-.36-1.63-1.59s.42-1.62,1.64-1.62q43.15,0,86.32,0c2,0,2.73.7,2.73,2.64V78.87Z"/><path class="cls-2" d="M0,78.81V8C0,6.07.6,5.55,2.85,5.55H83.52c1.92,0,3.85.07,5.77,0,1.49-.08,1.34.81,1.4,1.79.06,1.13-.35,1.42-1.46,1.42q-41.52,0-83.06,0c-3.3,0-3.3,0-3.3,3.24V147c0,2,0,2,1.94,2,12.48,0,25,0,37.45-.05,1.39,0,1.79.44,1.69,1.76-.07.86-.26,1.23-1.21,1.22q-20.21,0-40.41,0c-1.89,0-2.32-.49-2.32-2.49V78.81Z"/><path class="cls-1" d="M224.38,52.05c0,7.74,0,15.48,0,23.22,0,1.2-.34,1.47-1.48,1.45-3.75-.07-7.51,0-11.26,0-.85,0-1.11-.2-1.11-1.08q0-23.5,0-47c0-1,.34-1.16,1.22-1.15,3.75,0,7.5.05,11.26,0,1,0,1.36.31,1.35,1.36C224.36,36.56,224.38,44.31,224.38,52.05Z"/><path class="cls-1" d="M96.86,109.22c0,6.38,0,12.76,0,19.14,0,1.29-.38,1.55-1.57,1.51-3-.08-5.91-.06-8.87,0-.93,0-1.16-.27-1.16-1.19q0-19.35,0-38.7c0-1,.34-1.21,1.27-1.2,3,.06,6,.07,9,0,1,0,1.33.23,1.32,1.3C96.83,96.46,96.86,102.84,96.86,109.22Z"/><path class="cls-2" d="M219.09,151.8c0-2.4,0-4.81,0-7.21,0-.93.27-1.19,1.18-1.18s1.13.24,1.11,1.11c0,3.56,0,7.12,0,10.68,0,.4.3,1.09-.4,1.15s-1.33.34-1.89-.41c-2.12-2.8-4.28-5.57-6.51-8.46a9.39,9.39,0,0,0-.19,3.06c0,1.59-.05,3.18,0,4.78,0,.87-.24,1.11-1.1,1.11s-1.21-.23-1.2-1.17c.06-3.42,0-6.84,0-10.26,0-.52-.46-1.35.45-1.52a2,2,0,0,1,2.25.64c1.69,2.27,3.44,4.51,5.16,6.75l.81,1Z"/><path class="cls-2" d="M211.22,13.1c-2.82,1.14-3.49-1.11-4.49-2.64a2.92,2.92,0,0,0-3-1.67c-.84.08-1,.37-1,1.11s0,1.5,0,2.25-.21,1.21-1.15,1.22-1.15-.39-1.14-1.25q.06-5.28,0-10.55c0-.87.17-1.27,1.15-1.22,1.78.08,3.57-.06,5.34.05a4.14,4.14,0,0,1,3.49,6.33,3.45,3.45,0,0,1-1.55,1.35c-.76.41-.7.77-.23,1.39C209.56,10.63,210.36,11.85,211.22,13.1Zm-8.46-8.5c0,2.7-.14,2.17,2.23,2.26a7.75,7.75,0,0,0,1.66-.19c1.52-.27,1.95-.87,1.87-2.33s-.9-1.79-2.12-1.78l-1.54,0C202.76,2.53,202.76,2.53,202.76,4.6Z"/><path class="cls-2" d="M129.88,156.21a2.78,2.78,0,0,1-3.7-1.33c-.49-.83-1.18-1.55-1.63-2.4a1.06,1.06,0,0,0-1.11-.59c-1.92-.09-1.92-.09-1.93,1.85a13.26,13.26,0,0,0,0,1.41c.1,1-.36,1.28-1.31,1.28s-1.12-.52-1.12-1.33c0-3.38.06-6.76,0-10.14,0-1.24.38-1.63,1.62-1.55,1.59.11,3.19,0,4.78,0a4.15,4.15,0,0,1,4,2.89,4,4,0,0,1-2,4.83c-.82.41-.67.62-.27,1.15s.88,1.29,1.32,1.93Zm-6-10.65v.05h-1.55c-.38,0-.82,0-.84.52,0,1,0,2.06,0,3.08a.71.71,0,0,0,.77.67,11.05,11.05,0,0,0,3.89-.29,1.8,1.8,0,0,0,1.16-2.13c-.13-.92-.48-1.71-1.6-1.78Z"/><path class="cls-2" d="M169.05,156.28c-1.61.22-2.92.41-3.6-1.36-.29-.74-1.06-1.27-1.42-2-.71-1.41-1.93-1-3-1-.57,0-.48.49-.48.84,0,.94-.05,1.87,0,2.81s-.65.8-1.22.83-1.08,0-1.08-.84c0-3.74,0-7.49,0-11.23,0-.66.21-.92.88-.9,1.92,0,3.84,0,5.76,0a3.85,3.85,0,0,1,3.55,2.58c.68,2.55.36,3.58-1.55,4.87-.73.5-1.12.9-.31,1.8A30.58,30.58,0,0,1,169.05,156.28Zm-6-10.65c-.61,0-1.21,0-1.82,0-.89,0-.85.64-.74,1.16.22,1-.68,2.3.61,3.12a.22.22,0,0,0,.14,0,28.83,28.83,0,0,0,3.34-.16c1.36-.26,1.69-1.08,1.65-2.27a1.7,1.7,0,0,0-1.92-1.84Z"/><path class="cls-2" d="M158.8.37c2.66-.19,5.25.33,6.93,3a6.32,6.32,0,0,1,.16,6.74,6.13,6.13,0,0,1-5.35,3.2c-1.4.06-2.82,0-4.22,0-1,.05-1.2-.36-1.19-1.24,0-3.56.05-7.13,0-10.7,0-.82.26-1.08,1-1S157.78.37,158.8.37Zm-1.36,6.56h0c0,1.08,0,2.16,0,3.23,0,.38,0,.9.44.91,1.56,0,3.22.5,4.61-.56a4.52,4.52,0,0,0,1.26-6C163,3,159.4,1.88,157.9,2.6c-.49.24-.45.68-.45,1.09C157.43,4.77,157.44,5.85,157.44,6.93Z"/><path class="cls-2" d="M107,3.69a3.14,3.14,0,0,1-1.12,2.43c-.28.29-.77.63,0,1a2.8,2.8,0,0,1,1.46,2.8,3.67,3.67,0,0,1-2.45,3.25,6.29,6.29,0,0,1-5.48-.34c-2.25-1.27-2.7-3.58-.89-5.37.7-.69.83-1.06.12-1.88A3.05,3.05,0,0,1,99,1.36c2-2.1,6.51-1.6,7.67,1A3.14,3.14,0,0,1,107,3.69Zm-4.73,8c1.68,0,2.67-.7,2.69-1.94s-.87-2-2.46-2-2.8.84-2.79,2S100.81,11.64,102.24,11.66ZM104.73,4A2.12,2.12,0,0,0,102.45,2c-1.42,0-2.18.58-2.22,1.74a2.22,2.22,0,0,0,2.23,2.16A2.33,2.33,0,0,0,104.73,4Z"/><path class="cls-2" d="M202.24,143.44h3.37c.73,0,1.5-.07,1.42,1s-.63,1.22-1.53,1.18c-1.36-.06-2.72,0-4.07,0-1.13-.07-1.69.15-1.69,1.48s.56,1.67,1.76,1.58,2.25,0,3.37,0c.87,0,1.27.22,1.3,1.17s-.52,1-1.23,1c-1.32,0-2.63,0-3.94,0-.95,0-1.28.34-1.19,1.23a2.73,2.73,0,0,1,0,.7c-.18,1.13.21,1.62,1.43,1.55,1.54-.09,3.09,0,4.64,0,.85,0,1.31.21,1.33,1.17s-.55,1-1.26,1c-2.44,0-4.88,0-7.31,0-1,0-1.28-.47-1.27-1.36,0-3.42,0-6.84,0-10.26,0-1,.29-1.45,1.36-1.38S201.07,143.44,202.24,143.44Z"/><path class="cls-2" d="M172.06,149.87c0-1.73,0-3.47,0-5.2,0-.86.2-1.27,1.18-1.25,2.43.06,4.87,0,7.3,0,.59,0,1.28,0,1.11.83-.13.59-.09,1.43-1.19,1.37-1.64-.09-3.28,0-4.92,0-1.32,0-1,.86-1.08,1.61s0,1.51,1.13,1.45,2.53,0,3.79,0c.84,0,1.41,0,1.46,1.15s-.67,1-1.35,1c-1.31,0-2.63,0-3.94,0-.78,0-1.14.24-1.09,1a7.57,7.57,0,0,1,0,1.26c-.07.84.26,1.18,1.12,1.16,1.69-.05,3.37,0,5.06,0,.93,0,1.19.4,1.23,1.27s-.53.92-1.16.92c-2.49,0-5,0-7.45,0-.92,0-1.25-.3-1.23-1.21,0-1.78,0-3.56,0-5.34Z"/><path class="cls-2" d="M280.75,149.92c0-1.78,0-3.56,0-5.35,0-.82.29-1.16,1.15-1.14,2.44,0,4.88,0,7.32,0,.83,0,1.13.4,1.14,1.06s-.35,1.18-1.22,1.15c-1.64,0-3.28,0-4.92,0-1.23,0-1,.79-1,1.51s-.16,1.57,1,1.53,2.63,0,3.94,0c.91,0,1.37.21,1.38,1.25s-.64.91-1.29.91c-1.31,0-2.63.05-3.94,0-.87,0-1.2.31-1.14,1.15a8.83,8.83,0,0,1,0,1.26c-.07.82.33,1.06,1.09,1,1.59,0,3.19,0,4.78,0,.86,0,1.47.22,1.52,1.2.06,1.13-.75,1-1.44,1-2.3,0-4.6-.07-6.9,0-1.28.06-1.51-.54-1.49-1.59,0-1.64,0-3.28,0-4.92Z"/><path class="cls-2" d="M132.91,149.88c0-1.83,0-3.66,0-5.48,0-.72.2-1,1-1q3.79.06,7.59,0c.76,0,1.1.18,1.06,1s-.23,1.2-1.12,1.17c-1.73,0-3.47,0-5.2,0-1.13,0-1.06.65-1,1.36s-.43,1.72,1,1.69,2.81,0,4.21,0c1,0,1.42.43,1.42,1.32s-.71.83-1.32.83c-1.36,0-2.72.08-4.07,0-1-.07-1.27.35-1.23,1.29.1,2.45-.36,2.12,2.17,2.15,1.36,0,2.72.05,4.08,0,.89,0,1.1.36,1.13,1.17s-.26,1.05-1,1q-3.8,0-7.59,0c-.82,0-1-.29-1-1.06,0-1.83,0-3.65,0-5.48Z"/><path class="cls-2" d="M99.67,149.88c0-1.83,0-3.66,0-5.48,0-.73.21-1,1-1,2.53,0,5.06,0,7.59,0,.79,0,1.06.25,1,1.05s-.25,1.19-1.13,1.16c-1.73,0-3.46,0-5.2,0-1.12,0-1,.67-1,1.38s-.41,1.71,1,1.67,2.72,0,4.08,0c.83,0,1.49.14,1.54,1.16s-.76,1-1.43,1c-1.36,0-2.72.05-4.08,0-.88,0-1.13.28-1.11,1.13.06,2.78-.28,2.27,2.28,2.32,1.36,0,2.72,0,4.08,0,1,0,1,.6,1,1.3s-.38.91-1,.9c-2.53,0-5.06,0-7.59,0-.82,0-1-.28-1-1.06C99.7,153.53,99.67,151.7,99.67,149.88Z"/><path class="cls-2" d="M145.05,6.87c0,1.73,0,3.47,0,5.2,0,.85-.18,1.28-1.16,1.29s-1.18-.47-1.15-1.3,0-1.87,0-2.81S142.38,8,141.5,8c-1.17,0-2.35.06-3.52,0s-1.52.58-1.37,1.56a26.52,26.52,0,0,1,.1,3c0,.85-.52.86-1.12.85s-1.29.09-1.29-.84c0-3.75,0-7.51,0-11.26,0-.91.62-.87,1.26-.87s1.2.1,1.17,1c0,1.17,0,2.34,0,3.51,0,.73.21,1.14,1.05,1.1,1.26,0,2.53,0,3.79,0,.85,0,1.06-.38,1.06-1.1,0-1.13,0-2.25,0-3.38s.5-1.12,1.31-1.15,1.15.37,1.14,1.18c0,1.78,0,3.57,0,5.35Z"/><path class="cls-2" d="M79.71,153.45a4.71,4.71,0,0,1-.84,0c-1.68-.32-2.57.4-2.93,2a1.9,1.9,0,0,1-2.45.85c-.46-.3,0-.54.07-.8,1.59-3.67,3.17-7.36,4.78-11,.25-.58.52-1.17,1.38-1.09.7.07,1.29,0,1.66.87q2.34,5.73,4.88,11.39c.28.65.12.71-.4.72-.91,0-1.87.27-2.13-1.13s-1.39-2.06-2.89-1.84a7.1,7.1,0,0,1-1.13,0Zm-2-2.14c1.33,0,2.53,0,3.73,0,.39,0,.55-.14.34-.62-.53-1.16-.94-2.38-1.43-3.56a.83.83,0,0,0-.52-.43c-.27-.07-.31.21-.4.43C78.88,148.47,78.32,149.8,77.7,151.31Z"/><path class="cls-2" d="M247.62,156.24c-2.22.38-2.36.39-3.07-1.56a1.66,1.66,0,0,0-1.88-1.25,18.16,18.16,0,0,1-2.95,0c-1.55-.22-2.29.47-2.65,1.89a1.84,1.84,0,0,1-2.45,1c-.38-.2-.21-.43-.1-.68,1.66-3.79,3.31-7.59,5-11.38a1.54,1.54,0,0,1,1.53-.9,1.46,1.46,0,0,1,1.54,1.08c1.39,3.16,2.74,6.34,4.1,9.51C247,154.72,247.3,155.47,247.62,156.24ZM241,151.32c2.17,0,2.12,0,1.32-2a5.71,5.71,0,0,1-.73-1.92.73.73,0,0,0-.72-.71c-.35,0-.26.42-.36.66-.27.63-.54,1.25-.84,1.86C238.6,151.32,238.59,151.32,241,151.32Z"/><path class="cls-2" d="M114.78.37c.94,0,1.88,0,2.81,0,.56,0,1.14-.09,1.12.83s-.29,1.27-1.11,1.28c-1.27,0-2.53,0-3.8,0-.43,0-1-.14-1.11.54a4.13,4.13,0,0,0,.07,2.21c.16.34.66.09,1,0,2-.62,4.59.65,5.07,2.5.75,2.9-.45,4.91-3,5.69-1.91.58-3.46-.05-5.06-.76-.55-.24-1.41-.64-.82-1.55.47-.73,1-1.31,2-.42a3.44,3.44,0,0,0,2.54.92,2.27,2.27,0,0,0,2.21-2.23,2,2,0,0,0-2.14-2.23,3.77,3.77,0,0,0-2,.31,1.44,1.44,0,0,1-2.1-1.37c0-1.55.11-3.1.16-4.64,0-.84.4-1.15,1.24-1.09S113.79.37,114.78.37Z"/><path class="cls-2" d="M178.41,3.8c0,1.1.83,1.38,1.62,1.61a19,19,0,0,1,3.26,1.12,3.42,3.42,0,0,1,2,3.88,3.85,3.85,0,0,1-2.76,2.94c-2.28.7-4.26,0-6.19-1.11-.56-.33-.89-.66-.29-1.28.44-.45.49-1.34,1.53-.54a5.12,5.12,0,0,0,3.34,1.22A1.94,1.94,0,0,0,183,10c.17-1.08-.77-1.45-1.63-1.75-1.08-.37-2.18-.7-3.25-1.11a3.69,3.69,0,0,1-2.24-3.21,4.24,4.24,0,0,1,2.7-3.56A7.14,7.14,0,0,1,184,1c.55.24,1,.68.5,1.33s-.7,1.17-1.53.67a4.73,4.73,0,0,0-3-.95A1.56,1.56,0,0,0,178.41,3.8Z"/><path class="cls-2" d="M189.63,156.86c-1.61-.43-3.33-.49-4.66-1.63-.3-.26-1.12-.47-.32-1.1.43-.35.41-1.38,1.48-.69s2.17,1.46,3.58,1.25c.9-.13,1.78-.28,1.88-1.46s-.49-1.65-1.53-1.93a24.2,24.2,0,0,1-3.4-1.13c-1.5-.63-2.14-2.06-1.91-3.93a3.94,3.94,0,0,1,2.7-2.83c1.94-.67,3.62-.08,5.31.71.59.27.93.68.42,1.38s-.76,1-1.57.52a5,5,0,0,0-2.44-.87,1.85,1.85,0,0,0-2.12,1.41c-.26,1.17.74,1.66,1.61,1.89a18.8,18.8,0,0,1,3.26,1.14,3.77,3.77,0,0,1,2.24,3.33,3.87,3.87,0,0,1-2.65,3.43C190.9,156.56,190.26,156.69,189.63,156.86Z"/><path class="cls-2" d="M60.81,152.91c0,2.75-2.43,3.87-4.68,3.82A7.25,7.25,0,0,1,52,155.4c-.61-.45-1-.73-.36-1.52s.81-1,1.6-.31a4.74,4.74,0,0,0,3.48,1.12,1.88,1.88,0,0,0,1.84-1.59c.16-1-.71-1.44-1.49-1.74-1.11-.43-2.29-.71-3.4-1.15a3.51,3.51,0,0,1-2.22-3.33,4.06,4.06,0,0,1,2.5-3.4,6.73,6.73,0,0,1,5.49.57c.48.24,1.19.59.65,1.36-.41.6-.73,1.23-1.74.51a3.83,3.83,0,0,0-2.76-.78c-.81.12-1.44.44-1.58,1.29a1.48,1.48,0,0,0,.93,1.78c1.27.58,2.66.72,3.9,1.38A3.3,3.3,0,0,1,60.81,152.91Z"/><path class="cls-2" d="M145.55,149.8c0-1.74,0-3.48,0-5.21,0-.81.24-1.25,1.13-1.15,2.16.22,4.42-.55,6.49.56,1.73.92,2.49,2.09,2.28,4.46a4.05,4.05,0,0,1-2.81,3.41,8.21,8.21,0,0,1-3.43.5c-.89-.09-1.33.24-1.24,1.18.05.51,0,1,0,1.55.1,1-.25,1.31-1.26,1.33s-1.16-.49-1.16-1.29c0-1.78,0-3.56,0-5.34Zm2.3-2c0,2.35,0,2.35,1.58,2.35,2.69,0,3.75-.68,3.75-2.4,0-1.55-1-2.19-3.45-2.19C147.85,145.61,147.85,145.61,147.85,147.85Z"/><path class="cls-2" d="M222.44,6.64a4.41,4.41,0,0,0,4.51,5,5.2,5.2,0,0,0,2.74-1.27c.85-.77,1.06.1,1.44.39s.45.89-.06,1.29a6.82,6.82,0,0,1-7,1.21,6,6,0,0,1-3.91-4.81c-.61-3.59.41-6,3.48-7.62a6.75,6.75,0,0,1,7.19.59c.52.33,1,.69.3,1.27-.45.38-.57,1.38-1.62.6-2.91-2.18-5.59-.91-6.78,1.55A5.33,5.33,0,0,0,222.44,6.64Z"/><path class="cls-2" d="M267.07,143.44c1-.27,1.27.57,1.56,1.29.94,2.35,1.84,4.71,2.78,7.06.1.26,0,.77.5.66a1,1,0,0,0,.64-.7c.79-2.11,1.61-4.2,2.35-6.33.65-1.83,1.17-2.25,2.71-2,.48.08.63.19.4.71-1.61,3.76-3.23,7.51-4.75,11.31a1.2,1.2,0,0,1-1.26.95,1.39,1.39,0,0,1-1.53-.89c-.8-1.86-1.56-3.74-2.33-5.61-.69-1.65-1.33-3.33-2-5C265.5,143.58,265.56,143.43,267.07,143.44Z"/><path class="cls-2" d="M126.53.37c1.41,0,2.81,0,4.22,0,.71,0,1,.25,1,1s0,1.25-.94,1.23a13.17,13.17,0,0,1-1.54,0c-1.46-.24-1.73.5-1.7,1.76.06,2.53,0,5.06,0,7.58,0,.76.09,1.48-1.12,1.45s-1.18-.59-1.18-1.42c0-2.67,0-5.35,0-8,0-1-.31-1.49-1.38-1.35-.51.06-1,0-1.55,0-.86.06-1.26-.22-1.27-1.18s.48-1,1.22-1C123.72.38,125.12.37,126.53.37Z"/><path class="cls-2" d="M230.36,151.07c0,1.5-.05,3,0,4.5,0,1-.64.81-1.21.83s-1.09,0-1.08-.83c0-2.86,0-5.72,0-8.57,0-1.16-.39-1.49-1.44-1.36-.41.05-.85,0-1.26,0-.94.11-1.34-.19-1.35-1.22s.64-1,1.35-1c2.63,0,5.25,0,7.87,0,.77,0,1.11.2,1.06,1s-.09,1.21-1.05,1.24c-2.95.08-2.95.12-2.95,3.15Z"/><path class="cls-2" d="M254,151c0,1.5-.05,3,0,4.5.05,1-.5.9-1.15.9s-1.16,0-1.14-.92c0-2.72-.09-5.44.06-8.14.08-1.52-.48-1.9-1.81-1.72-.32.05-.66,0-1,0-.87.1-1.25-.18-1.27-1.14s.51-1.09,1.29-1.08c2.62,0,5.24,0,7.86,0,.85,0,1.15.25,1.14,1.11s-.3,1.12-1.15,1.14c-2.87.05-2.86.09-2.86,3Z"/><path class="cls-2" d="M92.92,151.14c0,1.46,0,2.91,0,4.36,0,1-.52.9-1.16.91s-1.16,0-1.14-.92c0-2.81,0-5.63,0-8.43,0-1.08-.25-1.58-1.38-1.43-.46.06-.94,0-1.4,0-.9.11-1.21-.22-1.26-1.15s.51-1.07,1.29-1.07c2.62,0,5.25,0,7.87,0,.85,0,1.17.22,1.13,1.1s-.22,1.13-1.12,1.14c-2.89,0-2.89.05-2.89,2.94Z"/><path class="cls-2" d="M69.26,151c0,1.31,0,2.62,0,3.93,0,.84.1,1.51-1.17,1.48S67,155.83,67,155c0-2.71,0-5.43,0-8.14,0-1-.28-1.37-1.26-1.26-.46.06-.94,0-1.4,0-.88.08-1.37-.08-1.38-1.17s.58-1,1.32-1c2.62,0,5.24,0,7.86,0,.88,0,1.12.31,1.12,1.13s-.35,1.1-1.18,1.12c-2.84,0-2.84.07-2.84,3Z"/><path class="cls-2" d="M193.74,8c0,1.41-.05,2.81,0,4.21.06,1-.3,1.19-1.19,1.19s-1.12-.28-1.1-1.14c.05-2.8,0-5.61,0-8.42,0-1-.28-1.37-1.26-1.25-.46.06-.94,0-1.4,0-.87.07-1.37-.09-1.39-1.18s.58-1,1.32-1c2.63,0,5.25,0,7.87,0,.73,0,1.14.13,1.09,1s-.05,1.25-1,1.25-2.26-.49-2.79.26-.16,1.89-.18,2.87c0,.75,0,1.49,0,2.24Z"/><path class="cls-2" d="M237.67,8c0-1.45,0-2.91,0-4.35,0-.77-.19-1.14-1-1.06-.56.05-1.13,0-1.69,0-1,.09-1.33-.24-1.33-1.24s.54-1,1.25-1c2.62,0,5.24,0,7.86,0,.79,0,1.23.09,1.18,1,0,.78-.18,1.17-1.1,1.19-2.93.08-2.92.12-2.91,3,0,2.2,0,4.4,0,6.6,0,.86-.24,1.13-1.1,1.13s-1.25-.22-1.2-1.17C237.73,10.79,237.67,9.38,237.67,8Z"/><path class="cls-2" d="M172.09,6.94c0,1.73,0,3.46,0,5.18,0,.77-.13,1.22-1.06,1.24s-1.26-.28-1.25-1.19c0-3.51,0-7,0-10.52,0-.79.13-1.31,1.14-1.32s1.18.58,1.17,1.43c0,1.72,0,3.45,0,5.18Z"/><path class="cls-2" d="M216.56,6.85c0,1.82,0,3.64,0,5.46,0,.8-.34,1-1.11,1s-1.22-.21-1.21-1.09q0-5.4,0-10.8c0-.86.36-1.1,1.18-1.12s1.15.38,1.14,1.18c0,1.77,0,3.55,0,5.33Z"/><path class="cls-2" d="M263,149.92c0,1.83,0,3.65,0,5.48,0,.81-.26,1.07-1.05,1s-1.27.09-1.25-1q.08-5.55,0-11.09c0-1.07.61-.89,1.26-.94s1.05.21,1,1c-.05,1.82,0,3.65,0,5.47Z"/></g></g></svg>